<svg version="1.0" xmlns="http://www.w3.org/2000/svg"
 width="300.000000pt" height="319.000000pt" viewBox="0 0 300.000000 319.000000"
 preserveAspectRatio="xMidYMid meet">
<metadata>
Created by potrace 1.10, written by Peter Selinger 2001-2011
</metadata>
<g transform="translate(0.000000,319.000000) scale(0.100000,-0.100000)"
fill="#000000" stroke="none">
<path d="M1213 3155 c3 -22 9 -63 13 -90 l6 -51 -78 -18 c-441 -103 -791 -389
-988 -806 -143 -302 -169 -673 -71 -1015 29 -101 152 -362 164 -349 5 5 29 68
55 140 l48 131 96 6 c54 4 125 7 160 7 34 0 62 1 62 3 0 2 -15 34 -34 73 -226
462 -32 1015 437 1240 70 34 205 79 213 72 2 -2 7 -37 10 -77 4 -39 10 -68 14
-64 4 4 53 106 110 225 91 193 101 220 89 235 -8 10 -81 99 -163 197 -140 170
-149 178 -143 141z m210 -273 l69 -82 -22 -53 c-32 -75 -120 -250 -131 -261
-6 -6 -9 -6 -9 2 0 6 -11 19 -25 28 -23 15 -29 15 -97 -6 -352 -106 -612 -394
-673 -747 -33 -190 -6 -421 66 -565 18 -35 18 -38 2 -46 -10 -5 -43 -10 -73
-11 -112 -4 -165 -13 -186 -32 -11 -11 -35 -58 -53 -104 -18 -47 -38 -85 -44
-85 -33 1 -127 262 -162 450 -19 104 -13 411 10 500 9 36 18 72 20 80 20 88
92 261 149 355 84 139 220 298 324 376 31 24 59 46 62 49 16 17 127 84 205
123 90 44 248 101 315 112 46 8 79 30 91 63 l11 27 40 -45 c22 -25 72 -82 111
-128z"/>
<path d="M1010 2802 c-19 -9 -40 -28 -47 -42 -10 -21 -20 -25 -61 -26 -57 -1
-132 -43 -132 -73 0 -6 -6 -11 -13 -11 -16 0 -130 -79 -136 -95 -2 -5 -36 -40
-74 -77 -60 -58 -69 -71 -63 -93 5 -19 2 -27 -11 -31 -43 -14 -67 -31 -89 -64
-37 -54 -32 -81 23 -128 27 -22 45 -43 42 -46 -3 -3 -29 3 -57 15 -49 20 -53
21 -77 5 -26 -17 -32 -45 -15 -76 8 -15 4 -23 -20 -40 -32 -23 -60 -77 -60
-115 0 -12 9 -30 20 -40 20 -19 20 -19 -10 -50 -51 -53 -57 -98 -23 -172 13
-29 13 -33 -6 -52 -25 -25 -26 -39 -6 -68 13 -18 13 -26 4 -42 -10 -15 -9 -24
5 -45 13 -20 14 -31 6 -46 -14 -25 -5 -57 20 -70 19 -10 142 26 187 56 34 22
44 54 27 82 -10 15 -12 28 -5 40 11 21 0 51 -28 76 l-21 19 30 34 c17 18 30
41 31 51 0 9 2 25 4 34 2 10 -1 33 -7 52 -9 29 -7 38 12 64 13 18 20 37 16 47
-3 10 2 27 14 42 11 14 20 31 20 38 0 11 30 72 101 205 11 19 19 51 19 72 0
34 3 38 26 38 31 0 64 17 64 32 0 6 18 26 40 45 22 19 40 41 40 49 0 8 10 14
24 14 14 0 27 4 30 9 4 5 35 26 71 46 36 20 73 48 82 63 9 15 18 28 19 30 1 2
11 -2 22 -9 16 -10 28 -9 66 5 65 25 79 48 59 95 -8 20 -22 51 -29 69 -8 18
-14 41 -14 51 0 25 -31 51 -61 51 -13 0 -40 -8 -59 -18z m93 -23 c4 -15 -1
-22 -19 -30 -14 -5 -30 -9 -35 -9 -11 0 -11 -11 -1 -28 7 -10 15 -10 36 -2 38
14 46 13 46 -9 0 -12 -11 -23 -30 -30 -32 -11 -33 -12 -24 -35 5 -14 10 -14
40 -1 31 13 34 12 39 -6 4 -11 5 -22 3 -23 -6 -5 -101 -36 -103 -33 -1 1 -18
43 -37 94 l-35 91 51 21 c64 25 63 25 69 0z m-139 -110 c52 -62 45 -108 -25
-159 -23 -16 -45 -30 -48 -30 -6 0 -101 163 -101 174 0 13 78 45 112 46 29 0
42 -6 62 -31z m-161 -131 c55 -75 60 -91 31 -100 -6 -2 -38 33 -71 78 -53 71
-58 82 -44 92 9 6 18 11 21 11 3 0 31 -37 63 -81z m-83 -57 c55 -90 56 -94 37
-109 -10 -9 -26 -3 -65 24 -29 19 -52 32 -52 29 0 -4 14 -26 30 -50 33 -49 36
-58 17 -73 -9 -8 -34 3 -92 38 -44 27 -84 51 -90 53 -6 3 -3 11 5 21 14 14 20
13 69 -20 29 -20 54 -34 57 -32 2 2 -12 28 -32 56 -32 49 -37 72 -13 72 6 0
34 -16 64 -35 30 -19 55 -31 55 -25 0 5 -4 11 -9 14 -5 3 -21 27 -36 52 -21
36 -24 48 -14 60 15 18 9 24 69 -75z m-184 -167 c69 -33 82 -87 38 -161 l-25
-44 -32 21 c-18 11 -55 35 -84 53 -29 17 -53 36 -53 41 0 15 63 88 84 96 30
12 34 12 72 -6z m-136 -224 c65 -33 80 -36 80 -17 0 28 17 40 38 28 l22 -11
-22 -45 c-12 -25 -25 -45 -29 -45 -18 0 -174 82 -173 90 4 39 7 39 84 0z m-31
-117 c20 -25 23 -26 62 -14 47 14 50 13 43 -16 -4 -15 -17 -23 -42 -28 -20 -4
-41 -9 -45 -12 -13 -8 14 -23 41 -23 22 0 28 -15 14 -37 -7 -11 -67 2 -189 42
-12 4 9 78 29 102 18 23 65 15 87 -14z m-11 -164 c40 -14 62 -49 62 -99 0 -73
-66 -115 -138 -88 -78 29 -89 136 -19 178 37 23 52 24 95 9z m-28 -249 c110
-15 119 -42 24 -74 l-59 -20 52 -7 c112 -14 112 -39 0 -80 -118 -43 -114 -42
-120 -19 -4 17 3 22 51 37 81 24 82 30 9 37 -43 5 -67 12 -71 22 -6 15 6 22
83 45 35 10 40 14 25 20 -11 4 -40 8 -66 8 -27 1 -48 5 -48 10 0 5 -3 17 -7
26 -5 15 -1 16 23 11 16 -3 63 -11 104 -16z"/>
<path d="M860 2650 c-12 -7 -10 -16 12 -57 31 -55 39 -60 62 -38 48 48 -17
131 -74 95z"/>
<path d="M455 2260 c-20 -23 -19 -24 40 -64 37 -24 41 -25 53 -9 18 25 15 47
-11 71 -29 27 -58 28 -82 2z"/>
<path d="M306 1945 c-20 -21 -12 -35 20 -35 27 0 32 21 10 39 -11 9 -18 8 -30
-4z"/>
<path d="M278 1759 c-22 -13 -24 -62 -2 -83 35 -35 104 -10 104 38 0 45 -59
71 -102 45z"/>
<path d="M1412 3013 c77 -91 168 -206 168 -214 0 -5 -29 -68 -65 -139 -36 -71
-65 -134 -65 -139 0 -5 9 -7 20 -4 11 3 64 0 117 -7 396 -50 703 -325 800
-718 24 -96 24 -302 0 -407 -11 -44 -22 -83 -25 -87 -4 -3 -36 7 -71 23 -35
16 -66 27 -69 25 -2 -3 8 -20 22 -38 35 -47 245 -351 249 -362 1 -4 114 11
250 35 136 23 244 46 240 49 -5 4 -35 17 -68 30 -33 13 -64 26 -68 30 -5 4 1
36 12 71 69 217 83 492 36 719 -136 660 -727 1150 -1389 1150 -103 0 -108 -1
-94 -17z m233 -13 c39 -5 87 -12 107 -15 66 -9 273 -82 358 -125 197 -99 372
-243 498 -410 23 -30 45 -59 50 -65 17 -22 79 -133 104 -185 70 -149 101 -253
126 -420 4 -25 7 -119 6 -210 0 -171 -14 -272 -55 -393 -25 -75 -24 -81 12
-112 17 -14 29 -28 26 -31 -3 -3 -85 -20 -181 -37 -175 -31 -176 -31 -195 -12
-27 30 -191 273 -191 285 0 5 13 10 29 10 39 0 51 17 71 106 27 115 27 299 -1
416 -93 398 -432 695 -836 734 -56 5 -73 10 -73 22 0 8 23 62 50 119 28 57 50
114 50 126 0 13 -21 47 -48 78 -71 80 -92 110 -86 120 7 11 89 11 179 -1z"/>
<path d="M2004 2701 c-46 -28 -64 -87 -49 -158 7 -28 110 -106 133 -100 16 4
16 5 0 6 -9 0 -19 10 -23 20 -3 10 -19 24 -35 31 -38 16 -60 51 -60 96 0 28 8
44 35 71 32 32 40 35 76 30 48 -6 74 -28 89 -72 14 -43 -8 -100 -44 -117 -27
-12 -30 -17 -20 -42 8 -21 80 62 89 104 23 105 -98 188 -191 131z"/>
<path d="M2052 2653 c-24 -9 -43 -60 -32 -87 10 -28 30 -35 30 -11 0 22 40 19
40 -2 1 -28 40 24 40 53 0 35 -43 61 -78 47z m45 -48 c2 -6 -8 -12 -22 -13
-24 -2 -32 8 -18 22 10 9 36 3 40 -9z"/>
<path d="M2245 2558 c-46 -36 -85 -98 -85 -136 0 -26 9 -43 35 -69 31 -31 40
-34 77 -31 38 3 49 10 95 62 29 32 53 65 53 72 0 8 -9 23 -20 34 -19 19 -23
19 -48 6 -16 -8 -34 -22 -41 -30 -26 -31 -31 -15 -7 17 55 71 9 129 -59 75z
m65 -3 c11 -13 4 -24 -39 -70 -45 -47 -50 -58 -41 -75 17 -32 44 -24 95 31 43
46 49 49 63 35 15 -15 12 -20 -28 -63 -81 -85 -98 -90 -149 -47 -47 39 -42 71
22 143 28 33 55 60 58 61 4 0 12 -7 19 -15z"/>
<path d="M2440 2341 c-8 -4 -41 -13 -72 -20 -89 -19 -105 -61 -35 -94 31 -16
37 -24 37 -51 0 -40 20 -69 45 -65 32 7 137 170 127 199 -11 35 -65 51 -102
31z m84 -26 c4 -11 -74 -148 -111 -194 -2 -3 -9 4 -17 14 -11 16 -12 23 -1 40
12 17 11 24 -10 49 -17 21 -29 27 -44 23 -15 -3 -25 1 -32 15 -6 11 -9 21 -7
22 5 4 182 43 199 45 9 0 19 -6 23 -14z"/>
<path d="M2433 2273 c-25 -5 -27 -11 -13 -33 8 -13 11 -12 24 5 13 17 21 38
14 34 -2 -1 -13 -4 -25 -6z"/>
<path d="M2536 2145 c-27 -14 -55 -25 -61 -25 -6 0 -22 -10 -34 -21 -19 -18
-22 -29 -17 -57 6 -38 40 -82 65 -83 11 0 12 -2 4 -6 -18 -7 -16 -58 3 -74 13
-11 26 -10 77 4 34 10 73 21 87 24 34 9 50 27 50 57 0 33 -35 43 -93 26 -23
-6 -54 -14 -69 -17 -26 -5 -26 -4 -18 32 10 43 3 36 62 65 53 26 66 48 46 79
-17 27 -42 26 -102 -4z m51 -53 c-29 -13 -62 -28 -75 -33 -22 -8 -22 -10 -7
-38 14 -28 14 -30 -6 -36 -11 -4 -22 -5 -24 -3 -8 9 -46 90 -43 92 2 2 28 13
58 25 30 12 71 30 90 41 35 18 35 18 47 -3 11 -20 8 -24 -40 -45z m106 -124
c4 -12 5 -23 4 -24 -1 -1 -46 -15 -99 -31 -95 -30 -96 -30 -102 -9 -3 11 -4
22 -2 23 3 4 175 60 187 62 4 1 9 -9 12 -21z"/>
<path d="M2664 1865 c-16 -16 -45 -29 -77 -36 -52 -9 -77 -29 -77 -60 0 -32
26 -41 90 -34 47 5 66 4 85 -9 18 -12 30 -14 51 -6 25 10 26 12 19 73 -11 94
-43 120 -91 72z m59 -17 c3 -13 9 -45 13 -71 6 -47 6 -49 -17 -45 -15 2 -25
11 -27 24 -3 20 -5 20 -65 7 -88 -18 -97 -17 -97 11 0 21 5 24 58 30 79 10 93
15 91 34 -2 28 0 32 20 32 11 0 21 -9 24 -22z"/>
<path d="M2682 1655 c-30 -14 -67 -25 -84 -25 -42 0 -68 -17 -68 -44 0 -31 15
-42 68 -50 24 -3 66 -18 94 -33 49 -26 51 -26 64 -8 17 23 18 47 2 63 -9 9 -8
21 2 51 10 33 11 43 0 56 -16 19 -15 19 -78 -10z m68 -13 c0 -22 -7 -32 -32
-44 l-33 -16 32 -18 c25 -14 33 -26 33 -46 l0 -28 -55 35 c-44 28 -64 35 -105
35 -48 0 -51 2 -48 23 3 19 8 22 48 19 37 -2 55 4 100 32 30 19 56 35 58 35 1
1 2 -12 2 -27z"/>
<path d="M1311 2319 c-80 -18 -226 -77 -216 -87 3 -3 0 -10 -5 -17 -13 -16 26
-13 42 3 7 7 17 12 24 12 6 0 17 7 24 15 18 21 27 19 26 -7 0 -12 -8 -24 -16
-26 -13 -5 -13 -3 0 14 14 18 14 18 -3 5 -9 -8 -15 -16 -13 -19 5 -4 -32 -34
-113 -92 -42 -30 -54 -67 -30 -93 9 -10 14 -28 11 -42 -2 -14 0 -25 5 -25 11
0 53 72 53 90 0 20 40 70 57 70 11 0 14 -7 11 -25 -6 -29 9 -45 18 -21 3 9 10
14 15 11 4 -3 6 -12 2 -20 -3 -9 2 -27 12 -41 12 -18 15 -36 10 -60 -3 -21 -2
-34 5 -34 19 0 10 -18 -12 -23 -29 -8 -32 -3 -18 22 10 19 8 21 -22 21 -32 -1
-68 -19 -68 -36 0 -4 5 -3 12 4 16 16 29 15 22 -3 -9 -22 5 -38 22 -24 9 7 14
8 14 1 0 -6 -10 -18 -22 -27 -21 -14 -23 -14 -28 1 -16 44 -150 -149 -150
-215 0 -17 -4 -31 -10 -31 -5 0 -10 13 -10 30 0 28 -2 29 -40 27 -34 -2 -41
-6 -50 -31 -14 -40 -13 -69 5 -92 14 -19 15 -18 35 6 25 32 25 40 0 40 -24 0
-26 13 -4 35 15 15 18 15 38 -4 30 -28 45 -26 52 7 3 15 23 59 43 97 32 62 43
73 91 98 30 16 57 33 58 38 2 5 12 9 21 9 37 0 51 31 42 96 -12 79 -32 126
-67 152 l-29 21 31 33 c16 18 35 45 41 59 8 19 22 28 48 33 20 4 40 5 43 1 3
-3 -4 -26 -16 -50 -34 -71 -25 -129 25 -156 26 -14 38 -6 85 58 7 11 24 27 37
36 23 16 25 15 35 -6 6 -12 23 -28 38 -36 24 -14 28 -14 47 3 12 11 21 27 21
36 0 21 -31 50 -54 50 -13 0 -15 4 -6 20 6 10 10 23 9 27 -6 36 25 42 103 22
l43 -12 2 -87 c1 -82 0 -88 -22 -100 -14 -8 -28 -29 -35 -56 -14 -49 -8 -74
19 -81 24 -6 34 -53 16 -73 -21 -25 -27 -57 -16 -96 9 -33 7 -41 -32 -102 -35
-55 -42 -76 -45 -128 -4 -51 0 -69 17 -97 38 -63 56 -72 135 -72 l71 0 9 -54
c7 -41 6 -66 -6 -105 -31 -100 -37 -155 -18 -178 15 -19 20 -20 52 -9 20 7 42
19 49 27 24 29 67 54 83 48 21 -8 9 -24 -59 -74 -149 -109 -261 -146 -435
-144 -168 3 -166 2 -229 70 -43 45 -61 73 -70 110 -22 86 -30 98 -97 158 l-66
59 5 53 c6 62 -1 97 -18 90 -7 -2 -37 17 -66 43 -30 25 -67 55 -82 64 -16 10
-30 30 -34 47 -3 16 -9 28 -13 25 -8 -5 -20 19 -19 38 0 7 4 3 9 -8 8 -19 9
-19 9 2 1 12 -4 25 -9 28 -6 4 -8 10 -5 15 3 4 0 31 -5 60 -9 48 -7 58 29 150
21 54 54 120 72 147 24 35 26 43 10 29 -34 -31 -89 -128 -121 -213 -106 -292
-29 -609 199 -814 201 -182 485 -241 741 -154 270 92 481 355 490 610 4 115 3
121 -29 135 -16 6 -32 21 -36 33 -6 18 -8 19 -12 5 -5 -20 15 -61 26 -53 5 2
15 -2 22 -11 11 -13 9 -22 -6 -51 -11 -20 -32 -45 -47 -56 -33 -24 -37 -41 -8
-32 12 4 20 2 20 -5 0 -20 -32 -74 -66 -112 -18 -21 -36 -50 -39 -65 -11 -53
-38 -93 -110 -162 -63 -62 -116 -93 -131 -79 -2 3 0 18 7 34 6 16 11 45 11 64
0 19 8 49 18 65 15 24 18 48 17 113 l-2 82 -33 6 c-18 4 -51 1 -75 -4 -49 -13
-71 -3 -110 50 -19 26 -23 44 -21 85 2 44 10 63 55 129 52 75 56 78 109 90 80
19 90 18 90 -9 0 -17 10 -28 35 -40 44 -21 55 -21 55 -2 0 19 4 19 41 -1 40
-20 59 -12 59 27 0 28 -2 31 -26 26 -22 -4 -28 0 -37 24 -13 33 -32 40 -24 9
10 -37 -14 -32 -30 7 -9 21 -29 48 -45 61 -35 29 -37 13 -3 -19 34 -33 34 -86
-1 -72 -12 5 -12 7 1 17 14 10 12 15 -17 43 -43 42 -71 36 -87 -17 -8 -28 -19
-41 -41 -48 -38 -14 -60 6 -60 54 0 32 2 34 35 34 42 0 44 11 9 43 l-26 24 30
12 c35 15 55 52 57 104 1 31 -2 36 -16 32 -25 -8 -35 17 -43 103 -5 61 -4 72
9 72 21 0 75 -24 100 -44 20 -16 20 -16 0 -10 -17 5 -16 2 5 -15 35 -29 41
-26 23 10 -20 40 -10 48 28 20 17 -13 33 -21 35 -18 8 8 -21 26 -107 68 -90
44 -187 73 -284 84 -58 7 -59 6 -44 -11 9 -11 20 -36 23 -57 7 -36 5 -38 -26
-51 -37 -16 -108 -80 -108 -99 0 -7 -4 -18 -9 -26 -7 -10 -12 -10 -30 5 -28
25 -29 86 -1 114 12 12 18 25 15 30 -4 6 -1 10 4 10 6 0 11 5 11 11 0 19 40
64 63 71 51 15 -30 6 -112 -13z m234 -141 c27 5 34 -15 14 -35 -23 -23 -70 12
-52 40 4 7 8 8 10 0 2 -5 15 -8 28 -5z m141 -132 c3 -13 17 -34 30 -47 27 -25
32 -49 10 -49 -8 0 -21 -3 -30 -6 -13 -5 -14 -1 -7 24 7 23 5 33 -10 46 -20
17 -26 56 -9 56 5 0 12 -11 16 -24z m-18 -62 c-1 -9 -8 -19 -14 -21 -10 -3
-11 8 -5 52 0 5 6 4 12 -2 6 -6 9 -19 7 -29z m-857 -454 c14 -14 47 -41 73
-60 93 -68 103 -81 100 -130 -3 -56 11 -81 83 -152 47 -45 62 -67 73 -109 8
-28 27 -72 43 -97 l28 -45 -31 6 c-17 4 -57 23 -88 44 -59 38 -222 196 -222
214 0 6 -9 24 -21 40 -35 50 -80 197 -85 279 -4 64 -3 72 8 55 7 -10 25 -31
39 -45z m1332 -162 c-8 -45 -64 -149 -77 -145 -6 2 -30 -24 -55 -57 -24 -33
-46 -55 -48 -49 -5 13 27 61 65 99 12 13 22 34 22 46 0 23 76 138 92 138 4 0
5 -15 1 -32z"/>
<path d="M1785 2149 c4 -19 14 -44 22 -56 9 -13 12 -23 9 -23 -4 0 -2 -9 4
-19 14 -27 -7 -39 -26 -15 -15 18 -15 18 -10 1 3 -10 6 -23 6 -28 0 -5 16 -9
36 -7 32 2 35 5 29 26 -4 18 -3 22 7 16 9 -5 8 -2 -1 10 -13 15 -13 19 0 27
11 7 9 9 -8 9 -24 0 -53 34 -53 62 0 9 -5 20 -11 24 -8 4 -9 -4 -4 -27z"/>
<path d="M2040 1648 c0 -15 33 -134 41 -148 15 -27 10 27 -7 83 -15 46 -34 83
-34 65z"/>
<path d="M930 1561 c0 -11 -3 -26 -6 -35 -4 -11 0 -16 14 -16 16 0 23 -8 28
-35 5 -28 11 -35 30 -35 13 0 24 3 24 8 0 4 9 13 20 19 16 10 28 9 66 -7 25
-11 57 -29 71 -40 14 -11 34 -20 45 -20 10 0 23 -10 29 -23 7 -16 33 -31 85
-51 54 -20 74 -32 74 -45 0 -37 -47 -133 -71 -144 -16 -9 -25 -22 -27 -45 -2
-18 -12 -38 -23 -46 -15 -10 -17 -16 -8 -21 9 -6 8 -11 -5 -20 -11 -9 -14 -19
-9 -32 10 -25 72 -78 81 -69 3 4 2 10 -4 14 -5 4 -19 20 -31 35 l-22 28 26 62
c15 34 36 72 48 83 12 12 32 50 45 84 32 85 23 106 -53 137 -32 13 -68 33 -80
44 -31 29 -139 89 -183 100 -23 7 -45 7 -64 0 -26 -9 -30 -6 -54 28 -14 20
-26 42 -26 49 0 7 -4 12 -10 12 -5 0 -10 -9 -10 -19z"/>
<path d="M2278 1117 c-28 -59 -137 -184 -212 -245 -96 -77 -235 -147 -354
-179 -83 -22 -118 -26 -237 -26 -174 1 -255 20 -410 98 -110 54 -277 182 -282
215 -2 8 22 32 53 53 30 22 54 40 52 41 -2 1 -79 -3 -173 -10 -93 -7 -202 -13
-241 -13 l-70 -1 -83 -222 c-105 -283 -101 -270 -65 -237 16 14 45 38 66 53
l36 27 99 -98 c169 -168 348 -279 568 -352 181 -60 292 -75 504 -68 190 6 255
18 417 72 251 83 475 237 642 440 85 103 189 265 169 265 -6 0 -74 -11 -149
-24 l-137 -23 -89 134 -88 133 -16 -33z m89 -134 c32 -48 70 -96 85 -106 26
-19 31 -19 136 -6 126 17 123 21 59 -76 -62 -94 -162 -204 -276 -303 -82 -71
-346 -222 -390 -222 -9 0 -21 -4 -27 -9 -12 -12 -185 -58 -249 -67 -27 -3 -59
-8 -70 -10 -29 -6 -296 -5 -325 1 -14 3 -50 9 -80 14 -78 13 -194 46 -270 77
-64 25 -195 91 -215 107 -5 4 -32 22 -60 39 -27 18 -52 35 -55 38 -3 3 -32 27
-65 55 -33 27 -88 78 -121 113 -58 61 -64 64 -101 61 -33 -4 -39 -2 -33 11 4
8 17 42 28 75 47 143 75 211 90 227 13 13 44 18 147 23 72 4 145 8 163 9 33 2
33 2 27 -35 -6 -36 -4 -41 52 -96 90 -90 169 -144 268 -183 33 -13 65 -27 70
-31 22 -15 195 -51 273 -56 203 -14 440 56 617 182 64 46 174 156 215 218 14
20 30 37 37 37 6 0 38 -39 70 -87z"/>
<path d="M716 748 c-28 -30 -60 -71 -71 -91 -19 -35 -19 -37 0 -56 10 -12 26
-21 35 -21 10 0 25 -11 34 -25 23 -34 51 -48 75 -35 17 8 20 6 26 -19 7 -35
44 -62 73 -54 15 3 31 -6 58 -32 33 -34 41 -37 77 -32 33 5 46 1 70 -19 35
-29 51 -30 70 -4 14 21 64 50 85 50 7 0 12 -14 12 -38 0 -50 26 -74 84 -79 38
-4 49 -1 69 19 l25 25 38 -24 c48 -28 114 -31 136 -5 38 43 25 79 -32 88 -21
4 -41 12 -44 20 -7 17 -1 20 56 28 51 8 50 8 64 -67 9 -52 53 -77 87 -49 12
11 17 31 18 71 l0 56 24 -52 c21 -46 28 -53 52 -53 33 0 53 16 53 42 0 15 5
17 28 12 58 -12 71 -11 110 6 29 13 47 30 62 59 21 42 37 50 58 29 18 -18 62
10 69 44 5 23 11 28 37 28 81 1 86 52 13 146 -44 58 -58 69 -82 69 -24 0 -33
-7 -45 -32 -12 -25 -22 -32 -50 -35 -26 -2 -40 -11 -55 -35 -13 -21 -26 -30
-37 -27 -35 10 -96 -16 -126 -53 -25 -32 -32 -35 -45 -24 -12 10 -24 10 -49 3
-18 -6 -58 -14 -88 -17 -30 -4 -60 -12 -67 -17 -7 -6 -30 -7 -53 -3 -31 5 -50
2 -81 -14 l-40 -21 -29 21 c-24 18 -38 21 -87 17 -48 -4 -63 -1 -86 16 -18 13
-43 21 -71 21 -28 0 -51 7 -64 18 -11 10 -37 21 -58 24 -22 3 -49 14 -60 25
-15 13 -33 18 -55 16 -28 -2 -34 1 -39 21 -3 14 -26 40 -50 58 -84 61 -76 61
-134 1z m94 2 c0 -3 -29 -40 -64 -82 -57 -69 -65 -75 -79 -61 -14 14 -10 23
46 93 53 65 65 75 80 66 9 -6 17 -13 17 -16z m1439 -56 c49 -69 52 -77 38 -91
-16 -17 -22 -15 -157 35 -8 3 5 -18 29 -47 42 -50 44 -54 25 -64 -10 -6 -20
-11 -21 -11 -4 -2 -113 148 -113 155 0 24 36 25 98 3 36 -13 69 -24 74 -24 6
0 -8 22 -31 48 -30 37 -37 52 -29 60 21 21 32 12 87 -64z m-1390 17 c10 -7 17
-35 20 -88 l6 -78 29 53 c29 51 51 65 62 38 3 -7 -18 -50 -46 -94 -46 -73 -53
-80 -70 -69 -16 9 -20 26 -22 92 l-3 80 -33 -58 c-29 -52 -34 -56 -52 -45 -17
11 -18 15 -6 33 7 11 30 48 51 83 40 66 42 67 64 53z m1168 -101 c44 -27 62
-84 39 -128 -17 -33 -61 -62 -93 -62 -34 0 -81 37 -93 75 -15 47 1 90 44 116
39 24 63 24 103 -1z m-944 -20 c15 -7 27 -19 27 -26 0 -19 -30 -25 -47 -9 -15
16 -33 12 -33 -7 0 -5 11 -23 25 -40 30 -36 31 -52 5 -78 -28 -28 -71 -26
-100 6 -21 21 -22 27 -10 34 20 13 26 12 40 -5 16 -19 29 -19 37 1 3 8 -4 25
-16 38 -29 31 -25 76 8 93 14 6 27 11 30 9 3 -1 18 -8 34 -16z m761 -124 c15
-48 26 -89 24 -91 -2 -2 -12 -5 -22 -7 -17 -2 -24 11 -48 92 -15 52 -28 96
-28 97 0 5 36 9 41 4 3 -3 18 -46 33 -95z m-606 71 c26 -21 33 -46 21 -69 -16
-31 -28 -38 -66 -38 -29 0 -33 -4 -39 -35 -6 -35 -18 -42 -41 -27 -9 6 -9 19
2 57 8 28 19 70 25 93 11 44 11 44 48 37 20 -4 43 -12 50 -18z m512 -12 c0
-18 -5 -25 -20 -25 -11 0 -20 -2 -20 -4 0 -3 7 -37 15 -77 9 -40 14 -73 13
-75 -2 -1 -12 -4 -23 -6 -17 -3 -21 6 -33 74 -13 75 -15 78 -38 72 -20 -5 -24
-3 -24 18 0 22 6 26 58 35 31 6 60 11 65 12 4 0 7 -10 7 -24z m-362 -5 c27 0
32 -4 32 -24 0 -20 -4 -23 -37 -22 -28 1 -38 -3 -41 -16 -3 -15 4 -18 32 -18
30 0 36 -4 36 -21 0 -18 -5 -21 -34 -17 -27 3 -36 0 -39 -14 -6 -22 1 -28 35
-28 21 0 28 -5 28 -20 0 -22 -21 -25 -80 -14 l-32 7 7 76 c10 112 14 124 39
117 11 -3 36 -6 54 -6z m198 -8 c6 -4 13 -17 17 -30 4 -18 2 -22 -10 -18 -42
16 -61 17 -77 1 -19 -19 -21 -76 -4 -93 15 -15 64 -16 73 -2 11 18 25 10 25
-14 0 -31 -10 -37 -62 -38 -100 -1 -135 139 -47 188 26 15 68 18 85 6z"/>
<path d="M1949 577 c-35 -18 -34 -73 3 -100 25 -19 28 -19 52 -3 57 37 6 133
-55 103z"/>
<path d="M1178 496 c-6 -28 13 -41 31 -23 16 16 14 34 -5 41 -22 8 -21 9 -26
-18z"/>
</g>
</svg>